<svg height="512" viewBox="0 0 512 512" width="512" xmlns="http://www.w3.org/2000/svg"><g><g fill="#57a4ff"><path d="m424 16h-336a32 32 0 0 0 -32 32v16h400v-16a32 32 0 0 0 -32-32z"/><path d="m264 96h160v80h-160z"/><path d="m184 176h-48v-80h-48v144h144v-144h-48z"/><path d="m248 352v144h24v-112h128v112h24v-144l-88-56z"/><path d="m88 368h136v48h-136z"/></g><g fill="#004fac"><path d="m424 8h-336a40.04 40.04 0 0 0 -40 40v416a40.04 40.04 0 0 0 40 40h336a40.04 40.04 0 0 0 40-40v-416a40.04 40.04 0 0 0 -40-40zm-32 480h-112v-72h112zm0-88h-112v-8h112zm24 88h-8v-104a8 8 0 0 0 -8-8h-128a8 8 0 0 0 -8 8v104h-8v-131.61l80-50.91 80 50.91zm32-24a24.031 24.031 0 0 1 -16 22.62v-134.62a8 8 0 0 0 -3.71-6.75l-88-56a7.973 7.973 0 0 0 -8.58 0l-88 56a8 8 0 0 0 -3.71 6.75v136h-152a24.032 24.032 0 0 1 -24-24v-392h384zm0-408h-384v-8a24.032 24.032 0 0 1 24-24h336a24.032 24.032 0 0 1 24 24z"/><path d="m424 88h-160a8 8 0 0 0 -8 8v80a8 8 0 0 0 8 8h160a8 8 0 0 0 8-8v-80a8 8 0 0 0 -8-8zm-8 80h-144v-64h144z"/><path d="m424 200h-160a8 8 0 0 0 0 16h160a8 8 0 0 0 0-16z"/><path d="m360 232h-96a8 8 0 0 0 0 16h96a8 8 0 0 0 0-16z"/><path d="m392 232h-8a8 8 0 0 0 0 16h8a8 8 0 0 0 0-16z"/><path d="m232 264h-144a8 8 0 0 0 0 16h144a8 8 0 0 0 0-16z"/><path d="m88 312h112a8 8 0 0 0 0-16h-112a8 8 0 0 0 0 16z"/><path d="m88 344h96a8 8 0 0 0 0-16h-96a8 8 0 0 0 0 16z"/><path d="m232 296h-8a8 8 0 0 0 0 16h8a8 8 0 0 0 0-16z"/><path d="m232 88h-144a8 8 0 0 0 -8 8v144a8 8 0 0 0 8 8h144a8 8 0 0 0 8-8v-144a8 8 0 0 0 -8-8zm-88 16h32v64h-32zm80 128h-128v-128h32v72a8 8 0 0 0 8 8h48a8 8 0 0 0 8-8v-72h32z"/><path d="m88 48h16a8 8 0 0 0 0-16h-16a8 8 0 0 0 0 16z"/><path d="m128 48h16a8 8 0 0 0 0-16h-16a8 8 0 0 0 0 16z"/><path d="m168 48h16a8 8 0 0 0 0-16h-16a8 8 0 0 0 0 16z"/><path d="m224 360h-136a8 8 0 0 0 -8 8v48a8 8 0 0 0 8 8h136a8 8 0 0 0 8-8v-48a8 8 0 0 0 -8-8zm-8 48h-120v-32h120z"/></g></g></svg>